<?xml version="1.0" encoding="utf-8"?>
<!-- Generator: Adobe Illustrator 16.2.0, SVG Export Plug-In . SVG Version: 6.00 Build 0)  -->
<!DOCTYPE svg PUBLIC "-//W3C//DTD SVG 1.1//EN" "http://www.w3.org/Graphics/SVG/1.1/DTD/svg11.dtd">
<svg version="1.1" id="Layer_1" xmlns="http://www.w3.org/2000/svg" xmlns:xlink="http://www.w3.org/1999/xlink" x="0px" y="0px"
	 width="30px" height="30px" viewBox="0 0 30 30" enable-background="new 0 0 30 30" xml:space="preserve">
<path fill-rule="evenodd" clip-rule="evenodd" fill="#D3D3D3" d="M18.779,30.012v-5.213c-0.004-1.515-0.633-2.314-1.246-2.736
	c3.35-0.354,6.933-1.575,6.933-7.464c0-1.648-0.577-2.994-1.526-4.05c0.152-0.381,0.661-1.914-0.145-3.993
	c0,0-1.246-0.406-4.081,1.547C17.529,7.767,16.259,7.6,15,7.595c-1.26,0.005-2.53,0.172-3.714,0.508
	C8.451,6.149,7.205,6.556,7.205,6.556c-0.807,2.079-0.298,3.612-0.146,3.993c-0.949,1.057-1.526,2.402-1.526,4.05
	c0,5.889,3.589,7.122,6.94,7.477c-0.478,0.328-0.959,0.883-1.153,1.815c-0.644,0.321-2.693,1.099-3.929-1.053
	c0,0-0.692-1.279-2.007-1.374c0,0-1.281-0.016-0.09,0.811c0,0,0.858,0.409,1.454,1.949c0,0,0.779,2.628,4.489,1.771v4.017
	C4.779,28.309,0.004,22.359,0.004,15.26c0-8.425,6.717-15.254,15.003-15.254c8.285,0,15.002,6.829,15.002,15.254
	C30.01,22.359,25.235,28.308,18.779,30.012z"/>
</svg>
